<svg id="Gambling-Judge" xmlns="http://www.w3.org/2000/svg" viewBox="0 0 900 300"><defs><style>.cls-1{fill:#ffc00e;}</style></defs><title>GamblingJudge-900x300-Yellow</title><g id="Logo-Yellow"><rect class="cls-1" width="900" height="300" rx="16.56"/><path d="M800.65,128.85c-1.28,0-2.55,0-3.82,0-4.08,0-4.08,0-4.87,3.88a13.8,13.8,0,0,1-3-1.92,19.21,19.21,0,0,0-26.4,5.55c-3.44,5.22-4.39,10.93-3.62,17.13,1.32,10.68,9.17,18.16,20,18.6a17.18,17.18,0,0,0,11.42-3.77c.48-.39.93-.91,1.64-.5-.14,5.48-1,8.14-6.3,9.65-4.94,1.39-9.9,1.48-14.24-2-.43-.34-.8-.8-1.39-.82a77.35,77.35,0,0,0-11.48.09c2.25,6,5.87,10.16,11.55,12.14a30.88,30.88,0,0,0,21.13,0A15.88,15.88,0,0,0,802,175a43.54,43.54,0,0,0,1.2-9.72c0-10.86,0-21.72,0-32.58v-1.37C803.1,129,803,128.92,800.65,128.85Zm-19.22,32.9c-6.94,0-11.65-4.83-11.62-11.95,0-6.82,4.71-11.62,11.35-11.64,6.82,0,11.62,4.79,11.64,11.71S788.21,161.75,781.43,161.75Z"/><path d="M752.73,112.4a85,85,0,0,0-10.12.16v20.17c-1.5-.36-2.2-1.25-3.11-1.82a18.58,18.58,0,0,0-19.43-1c-7.59,3.87-10.71,10.86-11.28,19a22.71,22.71,0,0,0,8.4,19.78,18.14,18.14,0,0,0,13,4.45,18,18,0,0,0,9.8-3.67c.68-.51,1.28-1.28,2.3-1.15.5,1.05-.09,2.26.73,3.34,2.29.59,4.75.25,7.18.27,3.21,0,3.26,0,3.26-3.15q0-26.65,0-53.32C753.48,114.48,753.73,113.43,752.73,112.4Zm-21.38,50.36c-6.64,0-11.5-5.43-11.39-12.69S724.83,138,731.58,138s11.51,5.23,11.42,12.32C742.93,157.65,738.11,162.78,731.35,162.76Z"/><path d="M846.54,132.64a21.57,21.57,0,0,0-13.07-4.75c-7.74-.41-14.47,1.72-19.27,8.36a23.4,23.4,0,0,0-4.07,19.85c1.07,4.51,3.14,8.67,6.76,11.59a24.58,24.58,0,0,0,28.24,2,13.75,13.75,0,0,0,6.17-6.3l-8.55-4.27c-10.63,6.8-21.29,4.22-22.07-5.31a6.48,6.48,0,0,1,3.17-.35c9,0,18,0,27,0,.73,0,1.46,0,2.19,0a1.47,1.47,0,0,0,1.66-1.69C854.73,144.23,852.55,137.64,846.54,132.64Zm-24.76,11.61c.91-4,5-6.8,10.07-7.07s9.85,2.65,11.3,7C840.52,144.32,824.23,144.37,821.78,144.25Z"/><path d="M323.2,123.73a11.06,11.06,0,0,1-4.51,4,36.44,36.44,0,0,0-9.63-6.61c-10.1-4.73-21.76-3.18-29.58,4a23.67,23.67,0,0,0,.9,36.26c9.1,7.58,22.7,8.4,31.72,1.87A19,19,0,0,0,319.45,153a8.88,8.88,0,0,0,.45-3.15c-1.26-.06-2.34,0-3.39,0-4.18,0-8.37-.07-12.55,0-2,0-2.25-1.09-2.14-2.63.09-1.37-.46-3.12,1.91-3.11l21.83.06a5.15,5.15,0,0,1,1.11.28c.8,2.33,0,4.6-.42,6.73-2.16,11.31-9,18.55-20.07,21.31-8.85,2.22-17.69,1.51-25.72-3.14-9.3-5.39-14.64-13.49-15.23-24.49-.36-6.55.76-12.71,4.45-18.2a30.72,30.72,0,0,1,23.8-14.11,36.26,36.26,0,0,1,28,9.11,17.2,17.2,0,0,1,1.37,1.33A3.5,3.5,0,0,1,323.2,123.73Z"/><path d="M610.19,128.85a2.32,2.32,0,0,0-1.89.62c-.61,1.76.18,3.81-.5,5.77-10.37-10.79-24.29-9.22-32.41-1-7.32,7.49-8.89,17.55-3.11,27.59,2.84,4.95,7.45,7.78,12.84,9.35,8.69,2.56,15.88-.73,22.47-6.16a34.39,34.39,0,0,1,.16,6.55c-.41,4.72-3.41,8.81-9.12,10.5-6.93,2-16.62,1.91-22.08-6.07a2.08,2.08,0,0,0-1.73-1.17,18.2,18.2,0,0,0-5.14.23c2.21,4.7,5,8.6,9.67,10.79a28.65,28.65,0,0,0,20.74,1.49c6.57-1.94,11-6.19,12.62-13.08a29.25,29.25,0,0,0,.91-6.45c0-11.85.07-23.71.07-35.57C613.69,128.88,613.51,128.72,610.19,128.85Zm-18.54,37.6c-9.66,0-16.76-6.82-16.76-16.06a17,17,0,0,1,17-17c9.39.07,16.67,7.32,16.3,16.81C608.21,160,601.61,166.48,591.65,166.45Z"/><path d="M387.67,135.1c3.9-5,8.71-7.65,14.78-7.29s10.35,3.55,12.55,9.36c1.24-.71,1.64-1.78,2.34-2.6,4.54-5.36,10.15-8,17.16-6.29,5.46,1.31,8.77,5.07,9.93,10.49a64.36,64.36,0,0,1,1.11,13c0,5.47,0,10.94,0,16.41,0,3.87-.22,4.07-4,3.91a2.73,2.73,0,0,1-1.63-.37c-.68-.92-.4-2-.41-3.11,0-6.66-.09-13.32,0-20a51.73,51.73,0,0,0-.69-7.59c-.55-4.39-4.29-6.95-8.74-7.37-7.43-.69-12.79,5.55-13.52,12.71s-.32,14.57-.49,21.85a9,9,0,0,1-.22,3.07,2.1,2.1,0,0,1-1.39.6c-3.91.39-4.19.14-4.2-3.82q0-10.26,0-20.52a30.31,30.31,0,0,0-.69-7c-1-4.35-4.14-6.86-8.56-6.78-7.44.14-11.91,4-13.34,11.33-.79,4.07-.51,8.16-.58,12.25-.07,3.92,0,7.85,0,11.77,0,2.68-.24,2.86-3,2.85-2.61,0-2.82-.17-2.83-2.78,0-8.94,0-17.87,0-26.81,0-3.56,0-7.11,0-10.67,0-2.75.19-2.88,3-2.86s2.75.12,2.86,2.74C387.19,132.63,386.86,133.74,387.67,135.1Z"/><path d="M693.32,129a67.37,67.37,0,0,1,9-.13c1.6,0,1.5,1.3,1.5,2.39,0,5.47.16,10.95,0,16.42a72.89,72.89,0,0,1-.95,11.12c-1.12,6-4.24,10.37-10,12.7A21.21,21.21,0,0,1,675,171c-4.65-2.26-6.87-6.53-8.2-11.33-.78-2.85-.6-5.78-.63-8.68q-.07-9.72-.06-19.43c0-2.49.17-2.62,2.65-2.66,2.27,0,4.55,0,6.82,0a5.31,5.31,0,0,1,1,.2c.87,1,.56,2.14.57,3.19q0,9.58,0,19.16a21.73,21.73,0,0,0,.72,6,7.48,7.48,0,0,0,14.49-.7,36.11,36.11,0,0,0,.55-6.81q0-8.76,0-17.52A7.27,7.27,0,0,1,693.32,129Z"/><path d="M490.23,136.36c-8.46-10.68-23.45-11.82-34.12-1.64,0-3.7,0-7.42,0-11.11s.21-7.37-.16-11a12.67,12.67,0,0,0-5.21.07c-.7,1.23-.45,2.44-.45,3.61q0,25.83,0,51.67c0,.64,0,1.28,0,1.92-.14,2.28,1.45,2.12,2.93,2.12s3,.12,3-2.12c0-1.37,0-3.06-.05-4.63,10.33,10.81,23.45,9.31,31.82,1.64C496.76,158.76,497,144.89,490.23,136.36Zm-17.88,30.87c-9.5,0-16.71-7.51-16.62-17.27a16.61,16.61,0,0,1,16.87-16.79,16.83,16.83,0,0,1,16.49,17.2A16.52,16.52,0,0,1,472.35,167.23Z"/><path d="M656.47,114.06a7.91,7.91,0,0,1,.33,3.25q0,18.06,0,36.13a44.8,44.8,0,0,1-1.07,10c-1.35,5.91-6.11,9.58-12.2,9.78-4.48.15-8.64-.58-12.36-3.27a37.12,37.12,0,0,1-4.93-4.94,50.79,50.79,0,0,1,6.57-6.92,1.53,1.53,0,0,1,2.38.22,14.87,14.87,0,0,0,3.77,3.12c3.12,1.76,5.86.44,6.3-3.07a32.61,32.61,0,0,0,.14-3.83q0-18.61,0-37.23c0-3.55,0-3.6,3.66-3.55C651.53,113.79,654,113.47,656.47,114.06Z"/><path d="M376.23,132.66c0-1.16.23-2.37-.57-3.67-1.55-.11-3.21-.43-4.93.27-.6,2,0,4-.62,6.67-4.34-5.25-9.5-8-15.85-8.17a21.6,21.6,0,0,0-16.33,6.3,22.79,22.79,0,0,0-3.77,27.56,21.53,21.53,0,0,0,10.37,9.65c9.64,4.13,18.62,1,26.08-6a47.43,47.43,0,0,0,.18,6.25c2.94.07,5.49,0,5.49,0v-3.88Q376.24,150.17,376.23,132.66Zm-22.4,35c-8.94-.07-16.56-8-16.58-17.27a17,17,0,0,1,16.74-17c9.48,0,16.62,7.42,16.62,17.23S363.38,167.71,353.83,167.62Z"/><path d="M557.93,171.46a7.16,7.16,0,0,1-.3-3.05c0-5.84-.1-11.68,0-17.51a50.89,50.89,0,0,0-.7-8.67c-.92-6.26-6.42-10.14-13.29-8.82A15,15,0,0,0,532,146c-.78,4.73-.39,9.45-.49,14.18-.07,3.1,0,6.2,0,9.3,0,2.32-.18,2.42-2.52,2.5-3.06.11-3.28-.07-3.28-3.13q0-18.47,0-36.93a4.46,4.46,0,0,1,.41-2.64c.17-.1.31-.26.47-.28,4.78-.51,4.77-.51,4.9,4.35,0,.45.07.9.13,1.71a57.35,57.35,0,0,1,4.75-3.75c5.69-3.61,11.7-5,18.06-1.86,4.78,2.31,7.2,6.38,8.18,11.52,1.22,6.42.66,12.89.79,19.35.06,3,0,6,0,9,0,2.47-.21,2.62-2.67,2.63A4.7,4.7,0,0,1,557.93,171.46Z"/><path d="M499.4,112.52a12,12,0,0,1,4.76.09,4.87,4.87,0,0,1,.5,3.07q0,26.52,0,53.06c0,2.94-2,4.21-4.84,3.1a1.33,1.33,0,0,1-.95-1.2c-.06-.72-.08-1.45-.08-2.18q0-26.27,0-52.51A5.53,5.53,0,0,1,499.4,112.52Z"/><path d="M517.47,129.22a4.88,4.88,0,0,1,.43,2.91q0,18.19,0,36.39c0,3.29-1.39,4.27-4.61,3.35a1.33,1.33,0,0,1-1.15-1.31c0-.81,0-1.64,0-2.46q0-17.5,0-35C512.13,128.45,512.61,128.11,517.47,129.22Z"/><path d="M519.68,115.88a4.38,4.38,0,0,1-4.48,4.72,5.23,5.23,0,0,1-4.82-4.57,5,5,0,0,1,5-4.73A4.35,4.35,0,0,1,519.68,115.88Z"/><path d="M139.59,57.7c-29.84-.39-51.83,11-70.58,29.83C51.25,108.45,43.2,132.44,45.56,160c3.48,40.72,39.83,82.61,91.87,82.6s91.78-43.22,91.83-92C229.33,96,184.17,56.4,139.59,57.7Zm76,122.84a4,4,0,0,1-1.16,2.05c-.94-.39-1.91-.84-2.92-1.2-2.24-.79-3.57-.41-4.64,1.68a107.14,107.14,0,0,1-6.76,11.45,2.9,2.9,0,0,0,.45,3.73,35,35,0,0,0,3.29,2.82,22.33,22.33,0,0,1-3.5,4.57,73.74,73.74,0,0,1-10.56,10.27c-1.72,1.32-2.2,1.2-3.48-.53-2.22-3-2.76-3.22-5.9-1.2-3.34,2.14-6.81,4-10.32,5.87-2.13,1.13-2.51,2.23-1.78,4.57a16.38,16.38,0,0,1,1.11,3.22c-3.6,2.33-17.47,6-21.48,5.63-.68-.94-.34-2.1-.61-3.15-.58-2.27-1.54-3.32-3.86-3.1-4.18.41-8.3-.05-12.45-.05-2.87,0-3.53.65-4.08,3.49a7.92,7.92,0,0,1-.71,3c-7.25-1-14.4-2.37-21.07-5.61-.36-1,.32-1.78.61-2.58,1-2.86.68-4.2-1.93-5.63-3.58-2-7.21-3.85-10.62-6.15-2-1.35-3.4-.92-4.93,1-.31.37-.6.77-.87,1.16-.76,1.08-1.51,1.08-2.53.21C80.46,212.32,76,208.62,72.43,204a7.49,7.49,0,0,1-1.81-2.89c.6-1,1.62-1.32,2.37-2,1.94-1.78,2.06-3.11.61-5.27A72.58,72.58,0,0,1,68,184c-1.43-3.07-2.69-3.58-5.85-2.43-.77.27-1.52.6-2.59,1-2.49-7.12-5.24-14-5.56-21.7a9.87,9.87,0,0,1,3.63-.84,2.57,2.57,0,0,0,2.53-2.48,17.91,17.91,0,0,0,.17-2q0-5.85,0-11.7c0-2.91-.67-3.65-3.45-4.1-3-.47-3.07-.47-2.69-3.47.83-6.47,3-12.56,5.27-18.79,1.11.43,2.06.77,3,1.15,2.2.87,4,.39,5-1.66a106.25,106.25,0,0,1,6.32-11c1.48-2.24,1.07-3.63-1.09-5.25-2.6-2-2.61-2-.41-4.47a121,121,0,0,1,11.85-11.9,4,4,0,0,1,2.37-1.31c.69.84,1.37,1.78,2.14,2.62,1.46,1.62,2.76,1.9,4.5.68a109.62,109.62,0,0,1,10.27-6c3.09-1.66,3.5-2.94,2.18-6.17a4.71,4.71,0,0,1-.73-2.21c6.91-2.71,13.92-5,21.44-5.7.65,1,.36,2.16.64,3.18.7,2.57,1.84,3.54,4.57,3.37,2.16-.13,4.35-.3,6.53-.29,1.37,0,2.71.11,4.08.26,3.24.34,4.64-.77,5.25-4a7.47,7.47,0,0,1,.46-2.51c7.53.55,14.56,3,21.62,5.63,0,1.27-.68,2.17-1,3.18-.86,2.43-.5,3.46,1.7,4.76,3.64,2.16,7.44,4,10.95,6.42,1.74,1.18,3.3.91,4.75-.69.71-.78,1.31-1.71,2.16-2.82,6.38,4.36,11.2,10.13,16,16-.6,1-1.51,1.27-2.17,1.8-2.25,1.8-2.59,3.42-1,5.87,1.36,2.21,3,4.23,4,6.67a31.58,31.58,0,0,0,2.53,4.64A2.24,2.24,0,0,0,210,119a20.06,20.06,0,0,0,2.71-.91c1.45-.58,2.2-.26,2.68,1.13,2,5.75,4,11.52,4.86,17.58.36,2.39.26,2.56-2.08,2.87-3.51.45-4.4,1.35-4.23,4.93a86.34,86.34,0,0,1,0,11.26c-.26,3.12.66,4,3.72,4.52s3.07.51,2.51,3.61A100.19,100.19,0,0,1,215.58,180.54Z"/><path d="M136.62,80.45C99.71,80.5,67.8,111,67.89,149.83c.08,39.4,30.76,70,70.9,69.83,36.05-.21,67.78-31.71,67.39-68.66C207.42,113.31,176.34,80.38,136.62,80.45ZM184,192.77c-9.69,11.35-22.3,17.84-37,20.09a57.16,57.16,0,0,1-18.32.11,8.14,8.14,0,0,1-3-1.23q-6.56-4.22-13.12-8.37a31.9,31.9,0,0,0-5-2.61c.15-2,1.16-3.47,1.72-5a3.89,3.89,0,0,1,2.29.43L128.62,202c.7.24,1.42.48,2.15.67,2,.51,2.44.22,2.83-1.73.12-.6.24-1.22.38-1.82,1.69-7.06,5.3-10.38,12.44-11.41,3-.43,6.09-.82,9.12-1.28a25.08,25.08,0,0,0,6-1.89c.79-.36,1.66-.68,1.88-1.85-1-.75-2.05-.35-3.06-.15a42.26,42.26,0,0,1-10.15,1.08,18.46,18.46,0,0,1-4.64-.69c-4.07-1.28-8.22-1.11-12.38-.78a22.58,22.58,0,0,1-6.3-.47c-4.13-.82-6.46-3.56-7.61-7.46a33.33,33.33,0,0,1-.87-5c-.23-2-.9-2.41-2.67-1.43a25.08,25.08,0,0,1-7.07,2.65c-5.23,1.08-9.84-.5-14-3.51a88.44,88.44,0,0,1-8.82-7.34,49.41,49.41,0,0,0-10.7-7.84c-.87-.46-1.55-.92-.82-2.14a10.87,10.87,0,0,1,3.43,1.73c5.49,3.44,10.93,7,16.48,10.34a24.56,24.56,0,0,0,10.35,3.64c8.89.84,15.92-5,16.5-13.31.29-3.91-1.24-7.23-3.67-10.17a1.62,1.62,0,0,0-1.41-.72c-.62.41-.63,1.17-.87,1.76a7.43,7.43,0,0,1-7,5.07,22.18,22.18,0,0,1-9.73-2,69.47,69.47,0,0,1-8.22-4.14,50.07,50.07,0,0,0-12.73-5.54,8.25,8.25,0,0,1-1.34-.48.76.76,0,0,1-.4-1c.14-.43.41-.75.89-.67.8.16,1.61.35,2.39.58,3.86,1.19,7.51,2.9,11.24,4.37q3.54,1.37,7.12,2.62a19.24,19.24,0,0,0,9.29.65,9.39,9.39,0,0,0,7.37-5.53,14.74,14.74,0,0,0,1.45-8.78c-.66-5-1.48-9.84-2.16-14.77a19.73,19.73,0,0,1,.42-7.34,4.47,4.47,0,0,1,3.45-3.44,14,14,0,0,1,6.06-.29,57.56,57.56,0,0,1,6.21,1c4.53,1.24,9,2.77,12.79,5.59a15.8,15.8,0,0,1,1.61,1.56c1.09,1.09,1.6,1.15,2.79.17a9.51,9.51,0,0,0,3.14-4.47,5.66,5.66,0,0,0-1.07-5.58A12.1,12.1,0,0,0,144.5,97a48.48,48.48,0,0,0-28.66-4.57c-7.57,1.13-10.3,6.54-9.52,13.52.29,2.45.87,4.86,1.3,7.28a22,22,0,0,1,.26,5.32,5.22,5.22,0,0,1-3.93,5,18,18,0,0,1-8.12.32c-4.79-.68-9.55-1.61-14.31-2.46-.17,0-.32-.19-.56-.35.17-1.21,1.05-1.31,2-1.23,1.89.17,3.79.46,5.68.67a35.42,35.42,0,0,0,9,.26,14.91,14.91,0,0,0,3-.69c2.95-1.13,4.32-3.28,3.84-6.43s-1.09-6.06-1.65-9.09a22,22,0,0,1-.28-5.31,4.76,4.76,0,0,1,2.44-4A60.21,60.21,0,0,1,127.22,87a64.76,64.76,0,0,1,49.08,13.13,61.4,61.4,0,0,1,19.27,25.69C205.19,150.48,200.92,172.85,184,192.77Z"/><path d="M143.72,122.23a4.11,4.11,0,0,0-1.88-.77c-2.28-.55-4.6-.26-6.91-.36-5.1-.24-7,1.84-8.75,6.05a6.37,6.37,0,0,0,.12,6,.35.35,0,0,0,0-.08l-.1-.05s5.29-9.69,10.92-5.75c-.38-.12-3.94-1.15-7.3,4l-.14.24c1,.41,1.5-.1,2.1-.34.89-.34,1.42-.19,1.52.75-.48.69-1.4.31-1.81,1.13a8,8,0,0,0,6.53.55,15.42,15.42,0,0,0,1.57-.65c-.29-1.66-1-1.66-1-1.66-.87,1-1.31.6-1.31.6.66-1.32.44-1.87.44-1.87,1.79-.15,2.64,2.48,2.64,2.48a3.9,3.9,0,0,0,1.08-1.13c.7-1.16.34-2.34.05-3.56-.39-1.69-.22-3.28,1.52-4.26A1.13,1.13,0,0,0,143.72,122.23Z"/><path d="M162.93,147.09a3.09,3.09,0,0,1-1.64,1.18c-1.53.47-3,1-3.27,2.78-.45,0-.72.08-.84,0-1.67-1.35-3.55-1-5.42-.65a9.32,9.32,0,0,1-3.45.08c-1.38-.29-1.81-1-1.54-2.36.46-2.39,2.39-3.61,4.92-3a26.76,26.76,0,0,0,7.23,1.15c2.25,0,2.25,0,4-1.3C163.75,145.81,163.36,146.48,162.93,147.09Z"/><path d="M160.46,159.31c0,1-.7,1.25-1.54,1.24-1.84,0-3.69,0-5.53-.06-3.24-.12-5.14.26-7.5,1.66a7.69,7.69,0,0,1-1.87.72,3.74,3.74,0,0,1-1.65-2.09c3.55-.12,3.55-.12,7.22-1.91,2.13-1,4.28-1.8,6.67-.77.84.34,1.76-.09,2.64,0S160.44,158.34,160.46,159.31Z"/><path d="M159.88,166.33c-2.17-1.61-4.2-1-6.28-.1a8.16,8.16,0,0,1-4,.73,2,2,0,0,1-2-1.49c-.21-1.07.71-1.35,1.46-1.64,2-.79,3.93-1.54,6.11-.55a5,5,0,0,0,2.83,0C160.49,162.92,160.9,163.45,159.88,166.33Z"/><path d="M155.27,127.79c-.56,1-.24,2.29-1.13,3.42-2.35-2.65-3.65-5.75-5-8.8.63-.49,1-.39,1.24-.2,1.42,1,2.82,1.9,4.2,2.91A1.87,1.87,0,0,1,155.27,127.79Z"/></g></svg>