<svg xmlns="http://www.w3.org/2000/svg" width="8" height="19"><path data-name="" d="M5.087.856a3.5 3.5 0 011 2.5v8.658a2.207 2.207 0 01-.637 1.58 2.023 2.023 0 01-2.9 0 2.226 2.226 0 01-.637-1.58V5.9A.338.338 0 012 5.662a1.477 1.477 0 011.156 0 .338.338 0 01.089.238v6.11a.928.928 0 00.252.626.68.68 0 00.993 0 .943.943 0 00.267-.626V3.352a2.2 2.2 0 00-.608-1.55 1.5 1.5 0 00-2.193 0 2.218 2.218 0 00-.608 1.55l.007 11.572a2.715 2.715 0 00.778 1.915 2.635 2.635 0 003.764.03 2.771 2.771 0 00.771-1.923l-.007-9.038a.343.343 0 01.1-.246 1.441 1.441 0 011.141 0 .338.338 0 01.089.238l.007 9.024A4.116 4.116 0 016.812 17.8a3.938 3.938 0 01-5.632-.015A4.111 4.111 0 010 14.924L.007 3.352a3.549 3.549 0 011-2.5 2.817 2.817 0 014.08.004z" fill="#b3b3b3" fill-rule="evenodd"/></svg>