<svg xmlns="http://www.w3.org/2000/svg" width="26" height="22"><path d="M15.81 14.27a1.47 1.47 0 001.48 1.46h3.84a1.23 1.23 0 01-1.16.82H5.23A1.23 1.23 0 014 15.34V6.56L12.6 12l8.6-5.45v3.8h-3.91a1.47 1.47 0 00-1.46 1.23c-.02.09-.02 2.69-.02 2.69zM20 5H5.23a1.23 1.23 0 00-1.16.83l8.53 5.4 8.53-5.4A1.23 1.23 0 0020 5zm5.78 7.42L22.59 9.3c-.35-.35-.64-.23-.64.26v1.37h-4.66a.9.9 0 00-.9.89v2.44a.9.9 0 00.9.89h4.66v1.37c0 .49.29.61.64.26l3.15-3.12a.89.89 0 000-1.24z" fill="#fff" fill-rule="evenodd"/></svg>