<svg xmlns="http://www.w3.org/2000/svg" width="15" height="11"><path data-name="" d="M15 5.32a.36.36 0 00-.15-.26l-.75-.57a.6.6 0 00-.7 0L7.5 8.97 1.6 4.49a.63.63 0 00-.35-.11.57.57 0 00-.34.11l-.75.57a.3.3 0 000 .52l7 5.31a.6.6 0 00.34.12.63.63 0 00.35-.12l7-5.3a.35.35 0 00.15-.27zm0-4.37a.36.36 0 00-.15-.26L14.1.12a.6.6 0 00-.7 0L7.5 4.59 1.6.12A.63.63 0 001.25 0a.57.57 0 00-.34.12L.16.69a.3.3 0 000 .52l7 5.3a.6.6 0 00.34.12.63.63 0 00.35-.11l7-5.3A.35.35 0 0015 .94z" fill="#fff" fill-rule="evenodd"/></svg>